<?xml version="1.0" encoding="utf-8"?>
<!-- Generator: Adobe Illustrator 16.0.0, SVG Export Plug-In . SVG Version: 6.00 Build 0)  -->
<!DOCTYPE svg PUBLIC "-//W3C//DTD SVG 1.1//EN" "http://www.w3.org/Graphics/SVG/1.1/DTD/svg11.dtd" [
	<!ENTITY ns_extend "http://ns.adobe.com/Extensibility/1.0/">
	<!ENTITY ns_ai "http://ns.adobe.com/AdobeIllustrator/10.0/">
	<!ENTITY ns_graphs "http://ns.adobe.com/Graphs/1.0/">
	<!ENTITY ns_vars "http://ns.adobe.com/Variables/1.0/">
	<!ENTITY ns_imrep "http://ns.adobe.com/ImageReplacement/1.0/">
	<!ENTITY ns_sfw "http://ns.adobe.com/SaveForWeb/1.0/">
	<!ENTITY ns_custom "http://ns.adobe.com/GenericCustomNamespace/1.0/">
	<!ENTITY ns_adobe_xpath "http://ns.adobe.com/XPath/1.0/">
]>
<svg version="1.1" id="Capa_1" xmlns:x="&ns_extend;" xmlns:i="&ns_ai;" xmlns:graph="&ns_graphs;"
	 xmlns="http://www.w3.org/2000/svg" xmlns:xlink="http://www.w3.org/1999/xlink" x="0px" y="0px" width="190px" height="256px"
	 viewBox="0 0 190 256" enable-background="new 0 0 190 256" xml:space="preserve">
<metadata>
	<sfw  xmlns="&ns_sfw;">
		<slices></slices>
		<sliceSourceBounds  height="244.681" width="177.433" x="8.097" y="-249.295" bottomLeftOrigin="true"></sliceSourceBounds>
	</sfw>
</metadata>
<g>
	<path fill="none" d="M130.185,31.316c0.102,0.182,7.824,13.865,7.824,13.865c1.999,0,7.655,0,8.272,0l4.305-6.983l2.075-3.375
		l0.019-0.032l0.021-0.032c0.531-0.813,0.587-2.051,0.284-2.614c-0.591-1.095-8.058-14.68-11.914-21.69l-10.918,17.458
		C129.14,29.473,129.32,29.776,130.185,31.316z"/>
	<path fill="none" d="M125.623,54.395l0.013-0.014l6.506,11.627l0.012,0.019c0.428,0.795,0.758,1.197,1.129,1.403
		c0.378,0.198,0.803,0.199,1.42,0.199c0.142,0,19.019-0.007,24.588-0.01l-10.315-18.111c-0.279-0.525-0.785-0.969-1.284-1.235
		l-5.982,9.734c0,0-0.011-0.019-0.019-0.033l-0.01,0.016c0,0-2.571-4.676-5.478-9.967l-5.231,0.002l0.015-0.017l-8.933,0.005
		L125.623,54.395z"/>
	<polygon fill="none" points="88.731,197.139 114.444,197.139 101.589,164.079 	"/>
	<path fill="none" d="M97.607,25.646l10.049,17.957l0.011,0.02l0.009,0.02c0.874,1.621,1.341,1.621,2.59,1.621
		c1.879,0,18.321-0.008,24.414-0.011c-0.511-0.93-1.725-3.104-3.143-5.634l-0.026-0.011c-3.034-5.417-7.001-12.469-7.001-12.469
		c-0.343-0.641-1.019-1.162-1.607-1.388c-0.19-0.071-0.371-0.111-0.528-0.112L97.607,25.646z"/>
	<path fill="none" d="M144.532,48.021l-5.145,0c0.882,1.364,1.715,3.135,2.425,4.427L144.532,48.021z"/>
	<rect x="10.889" y="238.903" fill="#FFFFFF" width="1.172" height="10.271"/>
	<polygon fill="#FFFFFF" points="25.409,247.558 18.957,238.903 17.627,238.903 17.627,249.174 18.8,249.174 18.8,240.517 
		25.266,249.174 26.581,249.174 26.581,238.903 25.409,238.903 	"/>
	<path fill="#FFFFFF" d="M39.738,245.016c0,2.176-1.074,3.262-3.224,3.262c-2.151,0-3.228-1.086-3.228-3.262v-6.112h-1.169v6.051
		c0,1.406,0.377,2.479,1.134,3.224c0.758,0.742,1.844,1.117,3.257,1.117c1.414,0,2.5-0.372,3.262-1.113
		c0.759-0.742,1.139-1.817,1.139-3.228v-6.051h-1.172V245.016z"/>
	<path fill="#FFFFFF" d="M51.665,244.031c-0.435-0.205-0.914-0.396-1.433-0.573c-0.521-0.174-0.999-0.32-1.436-0.431
		c-0.438-0.113-0.807-0.286-1.102-0.524c-0.299-0.234-0.447-0.528-0.447-0.878c0-0.567,0.23-1,0.688-1.302
		c0.459-0.299,1.118-0.452,1.982-0.452c0.929,0,1.795,0.215,2.597,0.646v-1.142c-0.886-0.405-1.789-0.608-2.706-0.608
		c-1.278,0-2.221,0.277-2.824,0.834c-0.607,0.559-0.908,1.23-0.908,2.024c0,0.537,0.149,0.986,0.448,1.35
		c0.301,0.362,0.667,0.628,1.107,0.793c0.441,0.165,0.917,0.329,1.435,0.489l1.43,0.451c0.437,0.145,0.805,0.374,1.101,0.688
		c0.298,0.313,0.446,0.699,0.446,1.159c-0.004,1.089-0.924,1.633-2.758,1.633c-1.218,0-2.258-0.273-3.113-0.819v1.202
		c0.957,0.483,2.024,0.724,3.202,0.724c1.21,0,2.153-0.245,2.83-0.731c0.674-0.485,1.013-1.155,1.013-2.008
		c0-0.615-0.149-1.14-0.449-1.571C52.469,244.554,52.101,244.235,51.665,244.031z"/>
	<path fill="#FFFFFF" d="M65.93,245.016c0,2.176-1.076,3.262-3.226,3.262s-3.226-1.086-3.226-3.262v-6.112h-1.171v6.051
		c0,1.406,0.378,2.479,1.135,3.224c0.757,0.742,1.844,1.117,3.258,1.117c1.414,0,2.5-0.372,3.26-1.113
		c0.76-0.742,1.141-1.817,1.141-3.228v-6.051H65.93V245.016z"/>
	<path fill="#FFFFFF" d="M75.502,238.903l-4.314,10.271h1.267l1.298-3.219h4.661l1.3,3.219h1.25l-4.297-10.271H75.502z
		 M74.188,244.909l1.899-4.7l1.892,4.7H74.188z"/>
	<polygon fill="#FFFFFF" points="86.8,238.903 85.629,238.903 85.629,249.174 92.326,249.174 92.326,248.098 86.8,248.098 	"/>
	<polygon fill="#FFFFFF" points="105.227,249.174 112.049,249.174 112.049,248.128 106.397,248.128 106.397,244.573 
		111.368,244.573 111.368,243.497 106.397,243.497 106.397,239.947 112.049,239.947 112.049,238.903 105.227,238.903 	"/>
	<path fill="#FFFFFF" d="M122.358,244.031c-0.435-0.205-0.912-0.396-1.432-0.573c-0.521-0.174-0.999-0.32-1.437-0.431
		c-0.438-0.113-0.806-0.286-1.104-0.524c-0.297-0.234-0.444-0.528-0.444-0.878c0-0.567,0.229-1,0.688-1.302
		c0.458-0.299,1.12-0.452,1.983-0.452c0.928,0,1.794,0.215,2.596,0.646v-1.142c-0.886-0.405-1.79-0.608-2.706-0.608
		c-1.279,0-2.221,0.277-2.826,0.834c-0.604,0.559-0.907,1.23-0.907,2.024c0,0.537,0.149,0.986,0.449,1.35
		c0.3,0.362,0.668,0.628,1.109,0.793c0.438,0.165,0.915,0.329,1.432,0.489l1.431,0.451c0.437,0.145,0.805,0.374,1.102,0.688
		c0.299,0.313,0.444,0.699,0.444,1.159c-0.003,1.089-0.922,1.633-2.755,1.633c-1.222,0-2.259-0.273-3.114-0.819v1.202
		c0.955,0.483,2.022,0.724,3.201,0.724c1.21,0,2.151-0.245,2.827-0.731c0.678-0.485,1.015-1.155,1.015-2.008
		c0-0.615-0.148-1.14-0.448-1.571C123.164,244.554,122.796,244.235,122.358,244.031z"/>
	<polygon fill="#FFFFFF" points="127.829,239.978 131.645,239.978 131.645,249.174 132.817,249.174 132.817,239.978 
		136.624,239.978 136.624,238.903 127.829,238.903 	"/>
	<path fill="#FFFFFF" d="M148.809,245.016c0,2.176-1.075,3.262-3.225,3.262c-2.15,0-3.227-1.086-3.227-3.262v-6.112h-1.173v6.051
		c0,1.406,0.378,2.479,1.136,3.224c0.76,0.742,1.846,1.117,3.259,1.117c1.414,0,2.501-0.372,3.261-1.113
		c0.76-0.742,1.14-1.817,1.14-3.228v-6.051h-1.171V245.016z"/>
	<path fill="#FFFFFF" d="M158.853,238.903h-3.392v10.271h3.392c3.385,0,5.078-1.713,5.078-5.136
		C163.931,240.614,162.237,238.903,158.853,238.903z M161.801,247.146c-0.64,0.654-1.648,0.981-3.031,0.981h-2.138v-8.181h2.138
		c1.383,0,2.392,0.329,3.031,0.983c0.639,0.656,0.957,1.689,0.957,3.107C162.758,245.455,162.439,246.49,161.801,247.146z"/>
	<rect x="169.157" y="238.903" fill="#FFFFFF" width="1.171" height="10.271"/>
	<path fill="#FFFFFF" d="M180.508,238.767c-3.344,0-5.015,1.756-5.015,5.265c0,3.508,1.671,5.264,5.015,5.264
		c3.347,0,5.021-1.756,5.021-5.264C185.529,240.522,183.854,238.767,180.508,238.767z M183.436,247.233
		c-0.613,0.678-1.588,1.018-2.928,1.018c-1.329,0-2.301-0.34-2.917-1.018c-0.619-0.678-0.927-1.742-0.927-3.202
		c0-1.459,0.308-2.529,0.927-3.203c0.616-0.678,1.588-1.016,2.917-1.016c1.34,0,2.314,0.338,2.928,1.016
		c0.617,0.674,0.925,1.744,0.925,3.203C184.36,245.491,184.053,246.556,183.436,247.233z"/>
	<polygon fill="#FFFFFF" points="12.222,70.622 12.222,4.614 8.097,4.614 8.097,5.749 8.097,70.622 10.833,70.622 	"/>
	<polygon fill="#FFFFFF" points="36.018,70.622 36.048,10.928 74.515,70.622 78.918,70.622 78.918,4.614 74.793,4.614 74.793,5.749 
		74.793,63.337 37.081,4.614 32.163,4.614 32.163,5.749 32.163,70.622 35.936,70.622 	"/>
	<path fill="#FFFFFF" d="M52.79,82.443v122.854c0,2.291-0.606,4.629-1.882,6.783c-3.452,5.506-10.88,8.358-18.432,8.358
		c-14.044,0-20.254-7.849-20.254-15.142V81.624H8.097v0.82v122.854c0,12.737,12.117,19.4,24.362,19.4
		c12.291,0,24.457-6.663,24.457-19.4V81.624H52.79V82.443z"/>
	<path fill="#FFFFFF" d="M97.278,115.607c10.12,2.096,19.936,5.021,19.149,15.464c-1.327,9.359-10.929,12.68-18.748,12.68
		c-8.101,0-15.288-3.203-19.225-8.568l-0.489-0.663l-4.144,1.714l0.749,1.072c4.671,6.703,13.241,10.704,22.92,10.704
		c15.353,0,22.986-8.662,23.581-16.713c1.046-13.796-12.521-17.971-22.816-19.91c-13.434-2.575-19.422-7.138-18.842-14.367
		c0.2-2.893,2.106-12.334,18.172-12.334c6.243,0,14.187,2.089,17.755,7.95l0.45,0.741l4.177-1.553l-0.65-1.085
		c-4.001-6.65-11.716-10.313-21.731-10.313c-10.973,0-22.228,5.096-22.636,16.472C74.361,109.387,85.909,113.365,97.278,115.607z"/>
	<path fill="#FFFFFF" d="M135.987,128.609V81.624h-4.812v0.82v46.166c0,12.737,12.805,19.4,25.05,19.4
		c12.291,0,25.145-6.663,25.145-19.4V81.624h-4.126v0.82v46.166c0,2.289-0.846,4.629-2.123,6.781
		c-3.451,5.51-11.104,8.36-18.653,8.36C142.422,143.751,135.987,135.902,135.987,128.609z"/>
	<path fill="#FFFFFF" d="M129.828,223.267l-25.499-64.896l-0.13-0.425h-5.221l-25.346,64.512l-0.283,0.81h0.772h3.683h0.356
		l8.899-22.002h29.057l8.899,22.002h0.355h3.687H129.828z M88.731,197.139l12.857-33.06l12.855,33.06H88.731z"/>
	<polygon fill="#FFFFFF" points="147.677,159.32 147.677,160.189 147.677,223.955 185.494,223.955 185.494,219.829 151.803,219.829 
		151.803,159.32 	"/>
	<path fill="#ED574A" d="M129.731,67.331l-5.986-10.697l1.878-2.239l-3.57-6.382l8.933-0.005l2.298-2.737
		c0.52,0,0.999,0,1.427-0.001c-0.14-0.253-0.332-0.603-0.567-1.024l1.986-2.367c1.099,1.951-2.548-4.458-0.253-0.383l-4.339-1.877
		c1.418,2.53,2.632,4.704,3.143,5.634c-6.093,0.003-22.535,0.011-24.414,0.011c-1.249,0-1.716,0-2.59-1.621l-0.009-0.02l-0.011-0.02
		L97.607,25.646l1.63-0.009l-6.318-2.736l12.336,22.044c1.543,2.866,3.176,3.066,5.01,3.066c1.648,0,3.854-0.001,8.634-0.003
		l10.804,19.305C130.381,68.573,130.4,68.573,129.731,67.331z"/>
	<path fill="#ED574A" d="M148.975,49.507l10.315,18.111c-5.569,0.002-24.446,0.01-24.588,0.01c-0.617,0-1.042-0.001-1.42-0.199
		c0.386,0.214,0.815,0.216,1.447,0.216c0.143,0,19.019-0.008,24.589-0.01l-10.314-18.111c-0.285-0.535-0.806-0.988-1.313-1.252
		C148.189,48.538,148.695,48.982,148.975,49.507z"/>
	<path fill="#ED574A" d="M141.689,57.973c-0.188-0.342-2.669-4.857-5.467-9.951h-0.021c2.906,5.291,5.478,9.967,5.478,9.967
		L141.689,57.973z"/>
	<path fill="#ED574A" d="M151.461,23.61c-4.21-7.661-10.227-18.599-10.227-18.599s-0.009,0.014-0.011,0.017
		c0.197,0.355,6.085,11.062,10.226,18.597L151.461,23.61z"/>
	<path fill="#ED574A" d="M126.934,25.841l0.603,1.056c0-0.001,0.008-0.014,0.011-0.017l-0.589-1.031
		c-0.692-1.294-1.969-2.31-3.276-2.739C124.981,23.543,126.246,24.554,126.934,25.841z"/>
	<path fill="#ED574A" d="M141.812,52.448c-0.71-1.292-1.543-3.063-2.425-4.427h-0.028c0.904,1.646,1.757,3.196,2.482,4.517
		l2.774-4.517h-0.084L141.812,52.448z"/>
	<path fill="#56BBB9" d="M141.224,5.028c-0.002-0.006-0.013-0.025-0.013-0.025s-13.394,21.43-13.664,21.876l0.013,0.025
		C127.648,26.753,141.002,5.385,141.224,5.028z"/>
	<path fill="#56BBB9" d="M92.917,22.899c0,0,29.147-0.015,29.477-0.013c0.419,0.003,0.854,0.082,1.287,0.224
		c-0.441-0.147-0.884-0.229-1.312-0.231c-0.33-0.002-29.476,0.013-29.476,0.013l0.025,0.011L92.917,22.899z"/>
	<path fill="#56BBB9" d="M124.51,27.138c0,0,3.967,7.052,7.001,12.469l0.026,0.011c-3.036-5.417-7.006-12.472-7.006-12.472
		c-0.347-0.648-1.036-1.175-1.629-1.396C123.491,25.976,124.167,26.497,124.51,27.138z"/>
	<path fill="#56BBB9" d="M152.7,34.759l-0.021,0.032l-0.019,0.032l-2.075,3.375l2.098-3.401l0.02,0.001l0.021-0.033
		c0.532-0.813,0.587-2.053,0.284-2.616c-0.59-1.098-8.071-14.709-11.924-21.714l-0.014,0.021c3.856,7.01,11.323,20.595,11.914,21.69
		C153.287,32.708,153.231,33.946,152.7,34.759z"/>
	<path fill="#56BBB9" d="M92.917,22.899l0.002,0.002l6.318,2.736l23.114-0.009c0.161,0.001,0.352,0.044,0.551,0.121
		c0.593,0.221,1.282,0.748,1.629,1.396c0,0,3.97,7.055,7.006,12.472l4.339,1.877c-2.295-4.075-5.649-10.032-5.715-10.153
		c-0.864-1.539-1.045-1.859-0.034-3.419l10.932-17.488c0.005,0.006,0.008,0.014,0.012,0.021l0.014-0.021
		c3.853,7.005,11.334,20.617,11.924,21.714c0.303,0.562,0.248,1.803-0.284,2.616l-0.021,0.033l-0.02-0.001l-2.098,3.401l-4.33,7.044
		c-0.188,0-0.847,0-1.724,0l0.059,0.025c0.874,0,1.531,0,1.718,0l6.404-10.42l0.021-0.032l0.02-0.032
		c0.532-0.813,0.587-2.051,0.282-2.614c-0.24-0.448-1.632-2.988-3.458-6.313l1.872-2.231c-4.141-7.535-10.028-18.241-10.226-18.597
		c-0.222,0.356-13.575,21.725-13.664,21.877l-0.013-0.025c-0.003,0.003-0.011,0.016-0.011,0.017l-0.603-1.056
		c-0.688-1.287-1.952-2.297-3.252-2.731c-0.433-0.142-0.868-0.221-1.287-0.224C122.064,22.885,92.917,22.899,92.917,22.899z"/>
	<path fill="#EDA53A" d="M144.587,47.932h-5.256c0.02,0.029,0.038,0.06,0.057,0.089l5.145,0L144.587,47.932z"/>
	<path fill="#EDA53A" d="M132.153,66.026l-0.012-0.019l-6.506-11.627l-0.013,0.014l6.489,11.596l0.014,0.02
		c0.438,0.814,0.772,1.218,1.156,1.419C132.911,67.223,132.581,66.821,132.153,66.026z"/>
	<path fill="#EDA53A" d="M136.202,48.022c-0.004-0.006-0.007-0.012-0.01-0.018l-5.207,0.003l-0.015,0.017L136.202,48.022z"/>
	<path fill="#EDA53A" d="M155.027,36.271l-5.93,9.645c0.942,0.529,1.789,1.33,2.306,2.297l12.616,22.152
		c0,0-29.014,0.011-29.317,0.011c-1.022,0-1.984-0.064-2.902-0.622c0.927,0.574,1.897,0.64,2.93,0.64
		c0.305,0,29.319-0.012,29.319-0.012l-12.617-22.151c-0.517-0.969-1.364-1.77-2.306-2.298l5.93-9.645
		c1.068-1.635,1.204-3.94,0.4-5.427c-0.266-0.495-1.907-3.484-3.984-7.265l-0.011,0.014c2.067,3.763,3.701,6.74,3.966,7.234
		C156.231,32.332,156.093,34.636,155.027,36.271z"/>
	<path fill="#EDA53A" d="M147.69,48.271c-0.009-0.005-0.019-0.012-0.027-0.017l-5.974,9.719c0.008,0.014,0.019,0.033,0.019,0.033
		L147.69,48.271z"/>
	<path fill="#EDA53A" d="M155.403,30.836c0.805,1.487,0.667,3.792-0.4,5.428l-5.929,9.645c0.941,0.527,1.788,1.329,2.305,2.297
		l-6.788-2.939c-2.003,0-5.161,0-6.555,0c0,0-0.809-1.438-1.907-3.39l-1.986,2.367c0.235,0.421,0.428,0.771,0.567,1.024
		c-0.428,0.001-0.907,0.001-1.427,0.001l-2.298,2.737l5.207-0.003c0.003,0.006,0.006,0.012,0.01,0.018h0.021
		c2.798,5.094,5.279,9.609,5.467,9.951l5.974-9.719c0.009,0.005,0.019,0.012,0.027,0.017c0.508,0.264,1.028,0.717,1.313,1.252
		l10.314,18.111c-5.57,0.002-24.446,0.01-24.589,0.01c-0.632,0-1.062-0.002-1.447-0.216c-0.384-0.201-0.719-0.605-1.156-1.419
		l-0.014-0.02l-6.489-11.596l-1.878,2.239l5.986,10.697c0.669,1.242,1.355,1.983,2.068,2.424c0.918,0.558,1.88,0.622,2.902,0.622
		c0.304,0,29.317-0.011,29.317-0.011l-12.616-22.152c-0.517-0.968-1.363-1.769-2.306-2.297l5.93-9.645
		c1.065-1.635,1.204-3.939,0.399-5.427c-0.265-0.494-1.898-3.471-3.966-7.234l-0.012,0.015
		C153.51,27.378,155.139,30.344,155.403,30.836z M141.842,52.538c-0.726-1.32-1.578-2.87-2.482-4.517h0.028
		c-0.019-0.029-0.037-0.061-0.057-0.089h5.256l-0.055,0.089h0.084L141.842,52.538z"/>
	<path fill="#EDA53A" d="M149.074,45.909l5.929-9.645c1.067-1.636,1.205-3.94,0.4-5.428c-0.265-0.492-1.894-3.458-3.954-7.211
		l-1.872,2.231c1.826,3.325,3.218,5.865,3.458,6.313c0.305,0.563,0.25,1.801-0.282,2.614l-0.02,0.032l-0.021,0.032l-6.404,10.42
		c-0.187,0-0.844,0-1.718,0l6.788,2.939C150.862,47.238,150.016,46.436,149.074,45.909z"/>
</g>
</svg>
