<?xml version="1.0" encoding="utf-8"?>
<!-- Generator: Adobe Illustrator 16.0.0, SVG Export Plug-In . SVG Version: 6.00 Build 0)  -->
<!DOCTYPE svg PUBLIC "-//W3C//DTD SVG 1.1//EN" "http://www.w3.org/Graphics/SVG/1.1/DTD/svg11.dtd" [
	<!ENTITY ns_extend "http://ns.adobe.com/Extensibility/1.0/">
	<!ENTITY ns_ai "http://ns.adobe.com/AdobeIllustrator/10.0/">
	<!ENTITY ns_graphs "http://ns.adobe.com/Graphs/1.0/">
	<!ENTITY ns_vars "http://ns.adobe.com/Variables/1.0/">
	<!ENTITY ns_imrep "http://ns.adobe.com/ImageReplacement/1.0/">
	<!ENTITY ns_sfw "http://ns.adobe.com/SaveForWeb/1.0/">
	<!ENTITY ns_custom "http://ns.adobe.com/GenericCustomNamespace/1.0/">
	<!ENTITY ns_adobe_xpath "http://ns.adobe.com/XPath/1.0/">
]>
<svg version="1.1" id="Capa_1" xmlns:x="&ns_extend;" xmlns:i="&ns_ai;" xmlns:graph="&ns_graphs;"
	 xmlns="http://www.w3.org/2000/svg" xmlns:xlink="http://www.w3.org/1999/xlink" x="0px" y="0px" width="62px" height="62px"
	 viewBox="0 0 62 62" enable-background="new 0 0 62 62" xml:space="preserve">
<metadata>
	<sfw  xmlns="&ns_sfw;">
		<slices></slices>
		<sliceSourceBounds  height="53.343" width="58.038" x="1.607" y="-55.596" bottomLeftOrigin="true"></sliceSourceBounds>
	</sfw>
</metadata>
<g>
	<path fill="none" d="M28.305,42.549l0.009-0.012l5.31,9.49l0.011,0.018c0.349,0.646,0.618,0.977,0.921,1.145
		c0.309,0.16,0.656,0.162,1.159,0.162c0.116,0,15.523-0.006,20.069-0.008l-8.419-14.785c-0.229-0.428-0.642-0.791-1.048-1.008
		l-4.884,7.945c0,0-0.009-0.016-0.015-0.025l-0.01,0.012c0,0-2.098-3.816-4.47-8.135l-4.271,0.002l0.012-0.014l-7.292,0.004
		L28.305,42.549z"/>
	<path fill="none" d="M43.739,37.346H39.54c0.719,1.115,1.399,2.559,1.979,3.615L43.739,37.346z"/>
	<path fill="#ED574A" d="M26.771,44.377l1.534-1.828l-2.916-5.209l7.292-0.004l1.876-2.236c0.424,0,0.815,0,1.164,0
		c-0.113-0.207-0.271-0.492-0.462-0.836l1.621-1.932l-0.224-0.379l-3.524-1.466c1.157,2.066,2.148,3.839,2.565,4.599
		c-4.974,0.002-18.396,0.01-19.93,0.01c-1.019,0-1.4,0-2.113-1.324l-0.008-0.016l-0.009-0.016L5.435,19.083l1.332-0.007
		l-5.159-2.233l10.071,17.994c1.259,2.34,2.592,2.504,4.089,2.504c1.347,0,3.146-0.002,7.048-0.004L26.771,44.377z"/>
	<path fill="#EDA53A" d="M49.348,37.504c-0.421-0.791-1.113-1.443-1.883-1.875l4.842-7.874c0.869-1.334,0.981-3.215,0.326-4.43
		c-0.217-0.402-1.55-2.833-3.238-5.905l-0.01,0.012l-1.528,1.822c1.491,2.714,2.627,4.788,2.824,5.153
		c0.248,0.459,0.203,1.47-0.231,2.134l-0.017,0.025l-0.016,0.026L45.188,35.1c-0.152,0-0.688,0-1.401-0.002
		c-1.636,0-4.214,0-5.351,0.002c0,0-0.66-1.176-1.557-2.768l-1.621,1.932c0.191,0.344,0.349,0.629,0.462,0.836
		c-0.349,0-0.74,0-1.164,0l-1.876,2.236l4.251-0.004c0.003,0.006,0.005,0.01,0.008,0.016h0.017c2.284,4.156,4.31,7.844,4.463,8.123
		l4.875-7.934c0.008,0.004,0.016,0.01,0.023,0.014c0.414,0.215,0.84,0.586,1.071,1.023l8.419,14.783
		c-4.546,0.002-19.953,0.008-20.07,0.008c-0.516,0-0.866-0.002-1.182-0.176c-0.312-0.164-0.586-0.494-0.943-1.16l-0.012-0.016
		l-5.296-9.465l-1.534,1.828l4.886,8.73c0.546,1.016,1.107,1.619,1.688,1.979c0.75,0.457,1.535,0.51,2.369,0.51
		c0.248,0,23.931-0.01,23.931-0.01L49.348,37.504z M41.543,41.033c-0.592-1.078-1.288-2.342-2.026-3.688h0.023
		c-0.016-0.023-0.031-0.049-0.047-0.072h4.291l-0.045,0.072h0.069L41.543,41.033z"/>
</g>
<path fill="#56BBB9" d="M1.607,16.84v0.002l3.841,2.233l20.185-0.007c0.132,0.001,0.287,0.036,0.45,0.099
	c0.483,0.181,1.047,0.61,1.33,1.14c0,0,3.24,5.759,5.719,10.181l3.524,1.466c-1.871-3.328-4.594-8.123-4.648-8.222
	c-0.705-1.256-0.853-1.518-0.027-2.791l8.924-14.276c0.003,0.006,0.007,0.012,0.009,0.017l0.01-0.017
	c3.146,5.718,9.253,16.829,9.734,17.725c0.247,0.459-1.31-2.422-2.801-5.137l1.528-1.822c-3.379-6.15-8.186-14.89-8.347-15.18
	C40.857,2.543,29.957,19.986,29.885,20.11l-0.011-0.021c-0.002,0.002-0.008,0.013-0.008,0.014l-0.492-0.862
	c-0.561-1.05-1.594-1.875-2.656-2.229c-0.353-0.116-0.708-0.18-1.049-0.183C25.399,16.828,1.607,16.84,1.607,16.84z"/>
</svg>
