<?xml version="1.0" encoding="UTF-8" standalone="no"?>
<svg width="62px" height="62px" viewBox="0 0 62 62" version="1.1" xmlns="http://www.w3.org/2000/svg" xmlns:xlink="http://www.w3.org/1999/xlink" xmlns:sketch="http://www.bohemiancoding.com/sketch/ns">
    <!-- Generator: Sketch 3.3.3 (12072) - http://www.bohemiancoding.com/sketch -->
    <title>icon_code</title>
    <desc>Created with Sketch.</desc>
    <defs></defs>
    <g id="Page-1" stroke="none" stroke-width="1" fill="none" fill-rule="evenodd" sketch:type="MSPage">
        <g id="icon_code" sketch:type="MSLayerGroup" transform="translate(1.000000, 1.000000)">
            <g id="Page-1" sketch:type="MSShapeGroup">
                <g id="Stroke-9-+-Fill-24-+-Fill-25-+-Fill-26">
                    <path d="M59.152,29.984 C59.152,46.128 46.066,59.215 29.922,59.215 C13.779,59.215 0.691,46.128 0.691,29.984 C0.691,13.841 13.779,0.754 29.922,0.754 C46.066,0.754 59.152,13.841 59.152,29.984 L59.152,29.984 L59.152,29.984 Z" id="Stroke-9" stroke="#52BEBC" stroke-width="3"></path>
                    <g id="Fill-24-+-Fill-25-+-Fill-26" transform="translate(8.000000, 17.000000)" fill="#52BEBC">
                        <path d="M10.539,21.22 L0.666,12.899 L10.539,4.594 L12.824,6.908 L5.559,12.87 L12.824,18.905 L10.539,21.22" id="Fill-24"></path>
                        <path d="M19.192,24.032 L15.721,24.032 L25.945,0.185 L29.432,0.185 L19.192,24.032" id="Fill-25"></path>
                        <path d="M35.287,4.594 L45.16,12.899 L35.287,21.22 L33.017,18.905 L40.268,12.929 L33.017,6.908 L35.287,4.594" id="Fill-26"></path>
                    </g>
                </g>
            </g>
        </g>
    </g>
</svg>