<?xml version="1.0" encoding="UTF-8" standalone="no"?>
<svg width="62px" height="62px" viewBox="0 0 62 62" version="1.1" xmlns="http://www.w3.org/2000/svg" xmlns:xlink="http://www.w3.org/1999/xlink" xmlns:sketch="http://www.bohemiancoding.com/sketch/ns">
    <!-- Generator: Sketch 3.3.3 (12072) - http://www.bohemiancoding.com/sketch -->
    <title>icon_cms</title>
    <desc>Created with Sketch.</desc>
    <defs></defs>
    <g id="Page-1" stroke="none" stroke-width="1" fill="none" fill-rule="evenodd" sketch:type="MSPage">
        <g id="icon_cms" sketch:type="MSLayerGroup" transform="translate(1.000000, 1.000000)">
            <g id="Page-1" sketch:type="MSShapeGroup">
                <g id="Path-+-Fill-10-+-Fill-11">
                    <path d="M59.191,30.154 C59.191,46.297 46.105,59.384 29.961,59.384 C13.818,59.384 0.731,46.297 0.731,30.154 C0.731,14.01 13.818,0.923 29.961,0.923 C46.105,0.923 59.191,14.01 59.191,30.154 L59.191,30.154 L59.191,30.154 Z" id="Path" stroke="#52BEBC" stroke-width="3"></path>
                    <g id="Fill-10-+-Fill-11" transform="translate(13.000000, 10.000000)" fill="#52BEBC">
                        <path d="M14.468,1.069 C13.671,0.61 12.793,0.265 11.847,0.063 C11.791,0.051 11.736,0.047 11.68,0.036 C10.46,1.704 8.361,2.6 6.237,2.146 C5.683,2.028 5.168,1.826 4.701,1.557 C4.008,2.047 3.38,2.631 2.839,3.3 C3.199,4.252 3.301,5.317 3.072,6.392 C2.761,7.848 1.904,9.044 0.768,9.808 C0.814,10.557 0.948,11.287 1.165,11.987 C1.365,12.006 1.566,12.035 1.768,12.078 C4.355,12.629 6.094,14.991 5.993,17.587 C6.388,17.773 6.8,17.934 7.228,18.063 C8.431,16.308 10.589,15.354 12.771,15.82 C13.605,15.998 14.347,16.368 14.972,16.869 C15.448,16.545 15.895,16.178 16.306,15.769 C15.934,14.807 15.826,13.725 16.059,12.635 C16.43,10.896 17.581,9.532 19.056,8.829 C19.029,7.876 18.858,6.951 18.559,6.077 C16.2,5.511 14.576,3.432 14.468,1.069 L14.468,1.069 L14.468,1.069 Z M9.898,13.386 C7.6,13.386 5.736,11.492 5.736,9.156 C5.736,6.82 7.6,4.926 9.898,4.926 C12.198,4.926 14.061,6.82 14.061,9.156 C14.061,11.492 12.198,13.386 9.898,13.386 L9.898,13.386 L9.898,13.386 Z" id="Fill-10"></path>
                        <path d="M33.382,24.223 C33.145,23.151 32.774,22.131 32.293,21.175 C28.441,21.151 25.267,18.299 24.715,14.588 C23.4,14.147 21.998,13.898 20.534,13.898 C20.422,13.898 20.314,13.906 20.204,13.909 C18.927,16.352 16.252,18.447 13.268,18.447 C12.452,18.447 11.665,18.318 10.927,18.083 C10.102,18.968 9.394,19.965 8.834,21.052 C9.625,22.266 10.089,23.714 10.089,25.272 C10.089,27.384 9.243,29.295 7.873,30.691 C8.209,31.878 8.707,32.994 9.341,34.019 C9.734,33.958 10.133,33.917 10.543,33.917 C14.259,33.917 17.36,36.547 18.096,40.051 C18.887,40.2 19.7,40.286 20.534,40.286 C20.616,40.286 20.695,40.275 20.777,40.274 C21.992,37.6 24.675,35.736 27.799,35.736 C28.615,35.736 29.4,35.865 30.138,36.1 C30.842,35.347 31.46,34.515 31.974,33.612 C31.343,32.492 30.979,31.2 30.979,29.822 C30.979,27.617 31.905,25.632 33.382,24.223 L33.382,24.223 L33.382,24.223 Z M20.52,33.096 C17.213,33.096 14.532,30.411 14.532,27.098 C14.532,23.785 17.213,21.099 20.52,21.099 C23.827,21.099 26.507,23.785 26.507,27.098 C26.507,30.411 23.827,33.096 20.52,33.096 L20.52,33.096 L20.52,33.096 Z" id="Fill-11"></path>
                    </g>
                </g>
            </g>
        </g>
    </g>
</svg>