<?xml version="1.0" encoding="UTF-8" standalone="no"?>
<svg width="63px" height="62px" viewBox="0 0 63 62" version="1.1" xmlns="http://www.w3.org/2000/svg" xmlns:xlink="http://www.w3.org/1999/xlink" xmlns:sketch="http://www.bohemiancoding.com/sketch/ns">
    <!-- Generator: Sketch 3.3.3 (12072) - http://www.bohemiancoding.com/sketch -->
    <title>icon_interface</title>
    <desc>Created with Sketch.</desc>
    <defs></defs>
    <g id="Page-1" stroke="none" stroke-width="1" fill="none" fill-rule="evenodd" sketch:type="MSPage">
        <g id="icon_interface" sketch:type="MSLayerGroup" transform="translate(2.000000, 1.000000)">
            <g id="Page-1" sketch:type="MSShapeGroup">
                <g id="Path-+-Fill-19-+-Group">
                    <path d="M58.523,29.984 C58.523,46.128 45.437,59.215 29.293,59.215 C13.15,59.215 0.062,46.128 0.062,29.984 C0.062,13.841 13.15,0.754 29.293,0.754 C45.437,0.754 58.523,13.841 58.523,29.984 L58.523,29.984 L58.523,29.984 Z" id="Path" stroke="#52BEBC" stroke-width="3"></path>
                    <path d="M14.793,45.984 L43.793,45.984 L43.793,13.984 L14.793,13.984 L14.793,45.984 L14.793,45.984 Z M16.793,15.984 L41.793,15.984 L41.793,43.984 L16.793,43.984 L16.793,15.984 L16.793,15.984 Z" id="Fill-19" fill="#52BEBC"></path>
                    <g id="Group" transform="translate(19.000000, 20.000000)" fill="#52BEBC">
                        <path d="M0.793,0.984 L19.793,0.984 L19.793,4.984 L0.793,4.984 L0.793,0.984 L0.793,0.984 Z" id="Fill-20"></path>
                        <path d="M0.793,5.984 L10.793,5.984 L10.793,19.984 L0.793,19.984 L0.793,5.984 L0.793,5.984 Z" id="Fill-21"></path>
                        <path d="M11.793,5.984 L19.793,5.984 L19.793,13.984 L11.793,13.984 L11.793,5.984 L11.793,5.984 Z" id="Fill-22"></path>
                        <path d="M11.793,14.984 L19.793,14.984 L19.793,19.984 L11.793,19.984 L11.793,14.984 L11.793,14.984 Z" id="Fill-23"></path>
                    </g>
                </g>
            </g>
        </g>
    </g>
</svg>