<?xml version="1.0" encoding="UTF-8" standalone="no"?>
<svg width="63px" height="62px" viewBox="0 0 63 62" version="1.1" xmlns="http://www.w3.org/2000/svg" xmlns:xlink="http://www.w3.org/1999/xlink" xmlns:sketch="http://www.bohemiancoding.com/sketch/ns">
    <!-- Generator: Sketch 3.3.3 (12072) - http://www.bohemiancoding.com/sketch -->
    <title>icon_map</title>
    <desc>Created with Sketch.</desc>
    <defs></defs>
    <g id="Page-1" stroke="none" stroke-width="1" fill="none" fill-rule="evenodd" sketch:type="MSPage">
        <g id="icon_map" sketch:type="MSLayerGroup" transform="translate(2.000000, 1.000000)">
            <g id="Page-1" sketch:type="MSShapeGroup">
                <g id="Group-+-Path">
                    <g id="Group" transform="translate(8.000000, 15.000000)" fill="#52BEBC">
                        <path d="M21.357,9.154 L22.357,9.154 L22.357,19.154 L21.357,19.154 L21.357,9.154 L21.357,9.154 Z" id="Fill-5"></path>
                        <path d="M4.423,14.154 L5.423,14.154 L5.423,20.154 L4.423,20.154 L4.423,14.154 L4.423,14.154 Z" id="Fill-6"></path>
                        <path d="M4.423,13.154 L38.422,13.154 L38.422,14.154 L4.423,14.154 L4.423,13.154 L4.423,13.154 Z" id="Fill-7"></path>
                        <path d="M37.422,14.154 L38.422,14.154 L38.422,20.154 L37.422,20.154 L37.422,14.154 L37.422,14.154 Z" id="Fill-8"></path>
                        <path d="M16.857,0.154 L26.856,0.154 L26.856,10.154 L16.857,10.154 L16.857,0.154 L16.857,0.154 Z" id="Fill-1"></path>
                        <path d="M16.857,18.154 L26.856,18.154 L26.856,28.154 L16.857,28.154 L16.857,18.154 L16.857,18.154 Z" id="Fill-2"></path>
                        <path d="M32.422,18.154 L42.422,18.154 L42.422,28.154 L32.422,28.154 L32.422,18.154 L32.422,18.154 Z" id="Fill-3"></path>
                        <path d="M0.423,18.154 L10.423,18.154 L10.423,28.154 L0.423,28.154 L0.423,18.154 L0.423,18.154 Z" id="Fill-4"></path>
                    </g>
                    <path d="M29.423,59.384 C13.279,59.384 0.192,46.297 0.192,30.154 C0.192,14.01 13.279,0.923 29.423,0.923 C45.567,0.923 58.653,14.01 58.653,30.154 C58.653,46.297 45.567,59.384 29.423,59.384 L29.423,59.384 Z" id="Path" stroke="#52BEBC" stroke-width="3"></path>
                </g>
            </g>
        </g>
    </g>
</svg>