<?xml version="1.0" encoding="UTF-8" standalone="no"?>
<svg width="63px" height="63px" viewBox="0 0 63 63" version="1.1" xmlns="http://www.w3.org/2000/svg" xmlns:xlink="http://www.w3.org/1999/xlink" xmlns:sketch="http://www.bohemiancoding.com/sketch/ns">
    <!-- Generator: Sketch 3.3.3 (12072) - http://www.bohemiancoding.com/sketch -->
    <title>icon_tablet</title>
    <desc>Created with Sketch.</desc>
    <defs></defs>
    <g id="Page-1" stroke="none" stroke-width="1" fill="none" fill-rule="evenodd" sketch:type="MSPage">
        <g id="icon_tablet" sketch:type="MSLayerGroup" transform="translate(2.000000, 2.000000)">
            <g id="Page-1" sketch:type="MSShapeGroup">
                <g id="Path-+-Fill-18">
                    <path d="M58.67,29.713 C58.67,45.856 45.584,58.943 29.44,58.943 C13.297,58.943 0.209,45.856 0.209,29.713 C0.209,13.569 13.297,0.482 29.44,0.482 C45.584,0.482 58.67,13.569 58.67,29.713 L58.67,29.713 L58.67,29.713 Z" id="Path" stroke="#52BEBC" stroke-width="3"></path>
                    <path d="M39.44,14.213 L19.44,14.213 C18.336,14.213 17.439,15.108 17.439,16.213 L17.439,45.213 C17.439,46.317 18.336,47.213 19.44,47.213 L39.44,47.213 C40.545,47.213 41.44,46.317 41.44,45.213 L41.44,16.213 C41.44,15.108 40.545,14.213 39.44,14.213 L39.44,14.213 L39.44,14.213 Z M29.44,46.213 C28.888,46.213 28.44,45.765 28.44,45.213 C28.44,44.66 28.888,44.213 29.44,44.213 C29.992,44.213 30.44,44.66 30.44,45.213 C30.44,45.765 29.992,46.213 29.44,46.213 L29.44,46.213 L29.44,46.213 Z M39.44,41.213 C39.44,42.317 38.545,43.213 37.44,43.213 L21.44,43.213 C20.336,43.213 19.44,42.317 19.44,41.213 L19.44,18.213 C19.44,17.108 20.336,16.213 21.44,16.213 L37.44,16.213 C38.545,16.213 39.44,17.108 39.44,18.213 L39.44,41.213 L39.44,41.213 Z" id="Fill-18" fill="#52BEBC"></path>
                </g>
            </g>
        </g>
    </g>
</svg>